<svg width="26" height="21" viewBox="0 0 26 21" fill="none" xmlns="http://www.w3.org/2000/svg">
  <path opacity="0.9"
    d="M15.5584 0.472278C15.7731 0.192402 16.1058 0.0283203 16.4585 0.0283203H22.9582C23.8987 0.0283203 24.4307 1.10702 23.8583 1.85327L9.71643 20.2882C9.50173 20.568 9.16906 20.7321 8.81631 20.7321H2.31668C1.37615 20.7321 0.844101 19.6534 1.41657 18.9072L15.5584 0.472278Z"
    fill="#D6D6D6" />
  <path opacity="0.7"
    d="M9.71601 0.472278C9.50131 0.192402 9.16864 0.0283203 8.8159 0.0283203H2.31626C1.37573 0.0283203 0.843686 1.10702 1.41615 1.85327L15.558 20.2882C15.7727 20.568 16.1054 20.7321 16.4581 20.7321H22.9577C23.8983 20.7321 24.4303 19.6534 23.8578 18.9072L9.71601 0.472278Z"
    fill="#00DF9A" />
  <path opacity="0.7" fill-rule="evenodd" clip-rule="evenodd"
    d="M12.6796 4.28027L8 10.3805L12.6796 16.4807L17.3593 10.3805L12.6796 4.28027Z" fill="#00DF9A" />
</svg>