<?xml version="1.0" encoding="UTF-8" standalone="no"?>
<svg
   viewBox="0 0 47 52"
   fill="none"
   version="1.1"
   id="svg22"
   sodipodi:docname="big-dipper-red-favicon.svg"
   inkscape:export-filename="big-dipper-red-favicon.svg"
   inkscape:export-xdpi="96"
   inkscape:export-ydpi="96"
   width="47"
   height="52"
   inkscape:version="1.3 (0e150ed, 2023-07-21)"
   xmlns:inkscape="http://www.inkscape.org/namespaces/inkscape"
   xmlns:sodipodi="http://sodipodi.sourceforge.net/DTD/sodipodi-0.dtd"
   xmlns="http://www.w3.org/2000/svg"
   xmlns:svg="http://www.w3.org/2000/svg">
  <defs
     id="defs22" />
  <sodipodi:namedview
     id="namedview22"
     pagecolor="#ffffff"
     bordercolor="#666666"
     borderopacity="1.0"
     inkscape:showpageshadow="2"
     inkscape:pageopacity="0.0"
     inkscape:pagecheckerboard="0"
     inkscape:deskcolor="#d1d1d1"
     inkscape:export-bgcolor="#ffffff00"
     inkscape:zoom="5.5526316"
     inkscape:cx="52.587678"
     inkscape:cy="40.251185"
     inkscape:window-width="1853"
     inkscape:window-height="1025"
     inkscape:window-x="67"
     inkscape:window-y="27"
     inkscape:window-maximized="1"
     inkscape:current-layer="svg22" />
  <path
     d="M 39.5579,3.42818 41.7888,10.371 44.5775,7.33169 V 2.07419 L 39.3577,0 35.0388,3.47139 Z"
     fill="#dc001a"
     id="path1" />
  <path
     d="M 40.4162,14.1315 37.7991,5.94995 H 30.7345 L 32.565,11.726 H 23.4696 V 51.9999 L 46.966,32.3527 Z m -10.168,12.6612 v -3.7595 l 5.2485,-2.1174 0.7722,2.3767 z"
     fill="#dc001a"
     id="path2" />
  <path
     d="M 7.38033,3.42818 5.14939,10.371 2.36072,7.33169 V 2.07419 L 7.58055,0 11.8994,3.47139 Z"
     fill="#f6504b"
     id="path3" />
  <path
     d="M 14.3867,11.726 16.2172,5.94995 H 9.16688 L 6.54981,14.1315 0,32.3671 23.4678,51.9999 V 11.726 Z m 2.3168,15.0667 -6.0207,-3.5002 0.7722,-2.3767 5.2485,2.1174 z"
     fill="#f6504b"
     id="path4" />
</svg>
