<svg xmlns="http://www.w3.org/2000/svg" viewBox="0 0 907.09 510.24"><defs><style>.cls-1{fill:#002d5d;}</style></defs><title>atlas-logo</title><g id="图层_1" data-name="图层 1"><path class="cls-1" d="M435.53,215H380.41a1.47,1.47,0,0,0-1.47,1.47v8.44a1.47,1.47,0,0,0,1.47,1.48H400.8a1.48,1.48,0,0,1,1.48,1.48V291a1.47,1.47,0,0,0,1.47,1.48h8.44a1.48,1.48,0,0,0,1.48-1.48V227.9a1.48,1.48,0,0,1,1.48-1.48h20.38a1.48,1.48,0,0,0,1.48-1.48V216.5A1.47,1.47,0,0,0,435.53,215Z"/><path class="cls-1" d="M510.54,215.86a1.46,1.46,0,0,0-1.32-.83h-1.09a1.44,1.44,0,0,0-1.32.84L476.16,281H459.74a1.48,1.48,0,0,1-1.48-1.48V216.5a1.47,1.47,0,0,0-1.48-1.47h-8.47a1.47,1.47,0,0,0-1.48,1.47v74.44a1.48,1.48,0,0,0,1.48,1.48l24.55,0,.23,0h10.08a1.47,1.47,0,0,0,1.32-.83l22.87-47.76a1.47,1.47,0,0,1,2.64,0l23.07,47.61a1.47,1.47,0,0,0,1.32.83h10.08a1.46,1.46,0,0,0,1.32-2.09Z"/><path class="cls-1" d="M357.35,215.86A1.47,1.47,0,0,0,356,215h-1.08a1.44,1.44,0,0,0-1.32.84L319,290.23a1.47,1.47,0,0,0,1.33,2.09h10.08a1.47,1.47,0,0,0,1.32-.83l22.49-47.6a1.47,1.47,0,0,1,2.64,0l23.07,47.61a1.47,1.47,0,0,0,1.32.83h10.07a1.47,1.47,0,0,0,1.33-2.09Z"/><path class="cls-1" d="M573.26,245.57c-12.17-4.32-12.17-8.76-12.17-10.89,0-3.4,2.9-8.45,10.91-8.45a11.1,11.1,0,0,1,10.13,6.42l0-.06,8.91-3.66a1.45,1.45,0,0,0,.73-2.05A22.21,22.21,0,0,0,572,215c-14.36,0-22.12,10.12-22.12,19.65,0,13,11.21,18.46,19.63,21.45,11.1,3.93,13,7.38,13,13.17s-3.19,12-12.14,12c-9.22,0-12-6.63-12.87-11.42a1.45,1.45,0,0,0-1.6-1.18l-8.23.91a1.48,1.48,0,0,0-1.29,1.7c2.05,12.93,11.32,21.2,24,21.2,7.11,0,13.14-2.49,17.43-7.19a23.58,23.58,0,0,0,5.92-16C593.77,254.83,583.91,249.34,573.26,245.57Z"/></g></svg>