<svg width="107" height="37" viewBox="0 0 107 37" fill="none" xmlns="http://www.w3.org/2000/svg">
<path fill-rule="evenodd" clip-rule="evenodd" d="M89.5917 7.07102L62.0849 34.5782L60.6204 36.0427H58.5493H40.2114H28.1403L36.6759 27.5072L53.8134 10.3696H49.6176L23.5752 36.412L16.5041 29.341L44.011 1.83408L45.4755 0.36961H47.5466H65.8845H77.9556L69.42 8.90514L52.2825 26.0427H56.4782L82.5206 0L89.5917 7.07102ZM17.1376 10.3714H12V0.371447H29.2086H41.2797L32.7442 8.90698L7.07107 34.5801L0 27.509L17.1376 10.3714ZM94.5 26.266H89.1807L106.318 9.12841L99.2472 2.05734L73.5741 27.7304L65.0385 36.266H77.1096H94.5V26.266Z" fill="black"/>
</svg>
