<?xml version="1.0" encoding="utf-8"?>
<svg xmlns="http://www.w3.org/2000/svg" fill="none" height="600" viewBox="0 0 600 600" width="600">
<g clip-path="url(#clip0_3712_7235)">
<rect fill="#A527E1" height="600" rx="300" width="600"/>
<path clip-rule="evenodd" d="M93.9727 299.789C93.9727 247.438 135.29 205 186.258 205C200.985 205 219.129 211.473 235.614 218.697C252.889 226.268 271.391 236.086 287.836 245.222C293.559 248.402 300.441 248.402 306.164 245.222C322.609 236.086 341.111 226.268 358.386 218.697C374.871 211.473 393.015 205 407.742 205C458.71 205 500.027 247.438 500.027 299.789C500.027 352.139 458.71 394.578 407.742 394.578C393.015 394.578 374.871 388.104 358.386 380.88C341.111 373.31 322.609 363.492 306.164 354.355C300.441 351.176 293.559 351.176 287.836 354.355C271.391 363.492 252.889 373.31 235.614 380.88C219.129 388.104 200.985 394.578 186.258 394.578C135.29 394.578 93.9727 352.139 93.9727 299.789ZM186.258 242.916C155.677 242.916 130.887 268.379 130.887 299.789C130.887 331.199 155.677 356.662 186.258 356.662C192.708 356.662 204.66 353.223 221.128 346.006C236.805 339.136 254.112 329.985 270.274 321.006C286.955 311.738 307.045 311.738 323.726 321.006C339.888 329.985 357.195 339.136 372.872 346.006C389.34 353.223 401.292 356.662 407.742 356.662C438.323 356.662 463.113 331.199 463.113 299.789C463.113 268.379 438.323 242.916 407.742 242.916C401.292 242.916 389.34 246.354 372.872 253.571C357.195 260.442 339.888 269.593 323.726 278.572C307.045 287.839 286.955 287.839 270.274 278.572C254.112 269.593 236.805 260.442 221.128 253.571C204.66 246.354 192.708 242.916 186.258 242.916Z" fill="white" fill-rule="evenodd"/>
</g>
<defs>
<clipPath id="clip0_3712_7235">
<rect fill="white" height="600" width="600"/>
</clipPath>
</defs>
</svg>