<?xml version="1.0" encoding="utf-8"?>
<!-- Generator: Adobe Illustrator 26.3.1, SVG Export Plug-In . SVG Version: 6.00 Build 0)  -->
<svg version="1.1" id="Layer_1" xmlns="http://www.w3.org/2000/svg" xmlns:xlink="http://www.w3.org/1999/xlink" x="0px" y="0px"
	 viewBox="0 0 1280 1024" style="enable-background:new 0 0 1280 1024;" xml:space="preserve">
<style type="text/css">
	.st0{fill:#FFFFFF;}
</style>
<g>
	<g>
		<g>
			<path class="st0" d="M535.92,341.63L535.92,341.63c-12.83-7.41-29.24-3.01-36.64,9.82l-55.6,96.3
				c-13.16,22.79-37.47,36.83-63.79,36.83l-108.59,0c-15.21,0-27.55,12.33-27.55,27.55v0c0,15.83,12.83,28.66,28.66,28.66l107.49,0
				c26.31,0,50.63,14.04,63.79,36.83l53.74,93.08c8.43,14.6,27.1,19.6,41.7,11.17h0c12.28-7.09,16.49-22.8,9.4-35.08l-56.17-97.29
				c-13.16-22.79-13.16-50.86,0-73.65l54.31-94.08C554.79,367.72,549.97,349.75,535.92,341.63z"/>
		</g>
	</g>
	<g>
		<path class="st0" d="M730.85,471.5c1.08,0,2.01,0.41,2.83,1.23c0.82,0.84,1.23,1.84,1.23,3.03c0,1.13-0.33,2.07-1,2.81
			l-27.31,34.51v33.93c0,1.51-0.45,2.66-1.3,3.5c-0.86,0.82-1.97,1.23-3.31,1.23c-1.34,0-2.46-0.41-3.31-1.23
			c-0.86-0.84-1.3-1.99-1.3-3.5v-34.04l-27.31-34.4c-0.74-0.82-1.12-1.75-1.12-2.81c0-1.19,0.45-2.2,1.3-3.03
			c0.86-0.82,1.86-1.23,2.98-1.23c1.27,0,2.34,0.56,3.27,1.67l25.6,32.71l25.52-32.71C728.51,472.06,729.59,471.5,730.85,471.5z"/>
		<path class="st0" d="M822.09,547.14c-5.43-3.31-9.6-7.98-12.54-14.06c-2.9-6.06-4.39-13.21-4.39-21.47
			c0-8.32,1.45-15.52,4.35-21.62c2.86-6.12,7.03-10.79,12.46-14.06c5.43-3.26,11.87-4.87,19.27-4.87s13.84,1.62,19.27,4.87
			c5.43,3.27,9.6,7.94,12.46,14.06c2.9,6.1,4.35,13.26,4.35,21.51c0,8.26-1.49,15.42-4.39,21.52c-2.94,6.12-7.11,10.81-12.54,14.12
			c-5.43,3.29-11.83,4.93-19.16,4.93C833.92,552.07,827.52,550.44,822.09,547.14z M860.86,535.72c4.69-5.66,7.03-13.73,7.03-24.22
			c0-10.47-2.34-18.53-6.99-24.15c-4.61-5.62-11.2-8.45-19.65-8.45c-8.41,0-14.92,2.85-19.61,8.5c-4.69,5.66-7.03,13.69-7.03,24.09
			c0,10.42,2.34,18.47,7.03,24.17c4.69,5.69,11.2,8.54,19.61,8.54C849.62,544.2,856.17,541.38,860.86,535.72z"/>
		<path class="st0" d="M1035.06,472.67c0.78,0.87,1.19,2.01,1.19,3.42v71.16c0,1.34-0.41,2.42-1.15,3.26
			c-0.74,0.82-1.79,1.23-3.13,1.23s-2.38-0.41-3.05-1.23c-0.67-0.84-1-1.92-1-3.26v-57.45l-24.37,46.77
			c-1.08,2.16-2.6,3.26-4.61,3.26c-1.97,0-3.5-1.1-4.61-3.26l-24.52-46.19v56.87c0,1.34-0.33,2.42-1.04,3.26
			c-0.74,0.82-1.75,1.23-3.09,1.23c-1.38,0-2.42-0.41-3.16-1.23c-0.74-0.84-1.12-1.92-1.12-3.26V476.1c0-1.41,0.41-2.55,1.23-3.42
			c0.82-0.86,1.93-1.28,3.39-1.28c1.86,0,3.35,1.08,4.46,3.26l28.58,54.73l28.2-54.73c0.6-1.19,1.27-2.05,1.97-2.53
			c0.71-0.48,1.56-0.73,2.53-0.73C1033.16,471.39,1034.28,471.82,1035.06,472.67z"/>
	</g>
</g>
</svg>
