<svg width="1080" height="1080" viewBox="0 0 1080 1080" fill="none" xmlns="http://www.w3.org/2000/svg">
<rect x="25" y="25" width="1030" height="1030" rx="188.173" fill="#2E0C61"/>
<g filter="url(#filter0_d_156_14)">
<mask id="mask0_156_14" style="mask-type:luminance" maskUnits="userSpaceOnUse" x="163" y="138" width="723" height="805">
<path d="M187.225 598.721C187.225 587.681 196.174 578.726 207.213 578.726C218.251 578.726 227.194 587.681 227.194 598.721C227.194 609.76 218.245 618.719 207.213 618.719C196.18 618.719 187.225 609.766 187.225 598.721ZM187.225 482.957C187.225 471.912 196.174 462.956 207.213 462.956C218.251 462.956 227.194 471.912 227.194 482.957C227.194 494.003 218.245 502.955 207.213 502.955C196.18 502.955 187.225 494 187.225 482.957ZM603.331 182.479C603.331 193.521 612.277 202.477 623.312 202.477C634.348 202.477 643.297 193.521 643.297 182.479C643.297 171.436 634.348 162.478 623.312 162.478C612.277 162.478 603.331 171.433 603.331 182.479ZM507.627 162.478C518.665 162.478 527.608 171.433 527.608 182.479C527.608 193.525 518.665 202.477 507.627 202.477C496.588 202.477 487.642 193.521 487.642 182.479C487.642 171.436 496.588 162.478 507.627 162.478ZM643.3 899.199C643.3 910.239 634.351 919.194 623.315 919.194C612.28 919.194 603.334 910.239 603.334 899.199C603.334 888.16 612.28 879.201 623.315 879.201C634.351 879.201 643.3 888.157 643.3 899.199ZM527.608 899.199C527.608 910.239 518.665 919.194 507.627 919.194C496.588 919.194 487.642 910.239 487.642 899.199C487.642 888.16 496.588 879.201 507.627 879.201C518.665 879.201 527.608 888.157 527.608 899.199ZM652.237 215.061V301.967C704.669 321.042 749.045 356.913 778.867 403.075H811.958C782.157 349.802 735.618 307.185 679.459 282.347V220.094C775.029 254.108 850.904 329.673 885.391 425.073H766.544C758.181 410.557 748.293 397.037 737.102 384.724L716.375 405.465L716.144 405.696L715.914 405.927L715.683 406.157L715.452 406.388L715.218 406.619L714.988 406.85L714.757 407.081L714.526 407.312L714.295 407.543L714.065 407.774L713.834 408.005L713.603 408.236L713.369 408.466L713.138 408.697L712.908 408.928L712.677 409.159L712.446 409.39L712.215 409.621L711.985 409.852L711.751 410.083L711.52 410.314L711.289 410.545L711.059 410.775L710.828 411.006L710.794 411.041L701.62 420.221L701.607 420.23C668.296 382.59 619.639 358.86 565.438 358.86C464.988 358.86 383.563 440.343 383.563 540.855C383.563 641.366 464.985 722.846 565.438 722.846C619.639 722.846 668.296 699.119 701.61 661.476L701.617 661.489L711.498 671.377L711.514 671.392L711.745 671.623L711.978 671.854L712.209 672.085L712.44 672.319L712.671 672.55L712.902 672.781L713.132 673.012L713.363 673.243L713.597 673.474L713.828 673.705L714.058 673.935L714.289 674.169L714.52 674.4L714.751 674.631L714.981 674.862L715.212 675.093L715.446 675.324L715.677 675.555L715.907 675.789L716.138 676.02L716.369 676.251L737.093 696.988C748.284 684.672 758.172 671.152 766.532 656.64H885.382C850.898 752.04 775.019 827.604 679.452 861.618V799.359C735.602 774.521 782.135 731.904 811.926 678.635H778.836C749.013 724.796 704.654 760.664 652.227 779.739V866.648C661.205 874.633 666.861 886.272 666.861 899.234C666.861 923.304 647.357 942.815 623.303 942.815C599.249 942.815 579.751 923.301 579.751 899.234C579.751 886.269 585.407 874.633 594.382 866.648V771.192C643.026 765.142 686.986 744.005 721.464 712.627L700.74 691.887C664.862 724.101 617.453 743.699 565.457 743.699C513.461 743.699 466.046 724.101 430.164 691.893L423.579 698.489L416.02 706.05L409.444 712.63C443.925 744.014 487.895 765.142 536.542 771.195V866.651C545.516 874.636 551.173 886.275 551.173 899.237C551.173 923.307 531.671 942.818 507.617 942.818C483.564 942.818 464.065 923.304 464.065 899.237C464.065 886.272 469.722 874.636 478.696 866.651V779.739C469.351 776.341 460.267 772.397 451.471 767.969V861.603C355.334 827.389 279.128 751.138 244.937 654.939H307.16C332.237 711.722 375.468 758.677 429.488 788.454V755.491C382.537 725.648 346.048 680.803 326.752 627.696H239.773C231.796 636.679 220.162 642.339 207.213 642.339C183.156 642.339 163.654 622.822 163.654 598.752C163.654 574.682 183.156 555.171 207.213 555.171C220.162 555.171 231.796 560.831 239.773 569.811H335.165C335.346 571.293 335.549 572.769 335.761 574.242H335.898C342.652 621.156 363.425 663.529 393.831 696.982L400.401 690.408L407.96 682.844L414.545 676.254C382.362 640.352 362.774 592.901 362.774 540.873C362.774 488.845 382.359 441.395 414.548 405.49L410.002 400.94L400.925 391.86L393.831 384.762C363.425 418.211 342.649 460.588 335.895 507.502H335.754C335.542 508.974 335.343 510.45 335.162 511.929H239.773C231.796 520.913 220.162 526.57 207.213 526.57C183.156 526.57 163.654 507.055 163.654 482.989C163.654 458.922 183.156 439.404 207.213 439.404C220.162 439.404 231.796 445.064 239.773 454.048H326.768C346.216 400.528 383.12 355.403 430.604 325.56H429.5V293.293C375.477 323.067 332.243 370.021 307.164 426.804H244.943C279.134 330.606 355.34 254.342 451.483 220.131V313.772C460.277 309.341 469.363 305.406 478.709 302.005V215.061C469.734 207.076 464.078 195.437 464.078 182.479C464.078 158.409 483.579 138.894 507.63 138.894C531.681 138.894 551.185 158.409 551.185 182.479C551.185 195.437 545.529 207.076 536.554 215.061V310.517C533.333 310.916 530.137 311.385 526.963 311.915L526.854 311.934C525.32 312.193 523.795 312.464 522.273 312.748L521.983 312.804C520.536 313.079 519.099 313.369 517.658 313.669L517.128 313.781C515.806 314.065 514.487 314.355 513.171 314.658L512.229 314.879C510.994 315.169 509.766 315.469 508.544 315.778L507.462 316.056C506.355 316.343 505.251 316.636 504.147 316.936L502.582 317.372C501.624 317.644 500.67 317.918 499.713 318.202C499.052 318.399 498.388 318.599 497.73 318.798C496.997 319.023 496.264 319.251 495.534 319.482C494.683 319.75 493.832 320.025 492.984 320.302L491.1 320.933C490.177 321.245 489.261 321.56 488.347 321.884L486.866 322.412C485.865 322.774 484.867 323.142 483.872 323.516L483.005 323.844L482.793 323.925C481.493 324.421 480.202 324.93 478.914 325.448C453.149 335.826 429.678 350.7 409.463 369.094L416.556 376.193L425.634 385.273L430.18 389.823C466.058 357.612 513.47 338.016 565.47 338.016C617.469 338.016 664.875 357.618 700.753 389.829L721.48 369.082C701.324 350.738 677.921 335.901 652.24 325.526C650.244 324.721 648.236 323.938 646.212 323.189L645.342 322.867C644.476 322.549 643.602 322.237 642.732 321.928L641.859 321.619L640.104 321.017L639.228 320.72L638.956 320.63C638.289 320.408 637.619 320.187 636.948 319.972L635.42 319.482L633.861 318.995L632.174 318.48L630.615 318.018L628.66 317.457L627.516 317.135C626.795 316.936 626.078 316.742 625.358 316.549L624.354 316.28C623.577 316.077 622.801 315.878 622.021 315.684L621.058 315.444C620.175 315.229 619.296 315.013 618.41 314.808L617.918 314.695C616.97 314.477 616.016 314.258 615.065 314.052L614.556 313.94C613.63 313.74 612.704 313.547 611.778 313.36L611.232 313.247C610.25 313.051 609.268 312.86 608.279 312.676L607.908 312.608C606.876 312.414 605.841 312.233 604.799 312.055L604.743 312.046L604.69 312.034L604.547 312.012C603.49 311.834 602.427 311.659 601.363 311.494L601.214 311.472C600.125 311.303 599.037 311.141 597.946 310.988L597.734 310.957C596.627 310.804 595.513 310.658 594.397 310.517V215.061C585.423 207.076 579.767 195.437 579.767 182.479C579.767 158.409 599.268 138.894 623.319 138.894C647.369 138.894 666.877 158.409 666.877 182.479C666.877 195.437 661.22 207.076 652.243 215.061H652.237Z" fill="white"/>
</mask>
<g mask="url(#mask0_156_14)">
<path d="M885.394 138.894H163.654V942.784H885.394V138.894Z" fill="url(#paint0_linear_156_14)"/>
</g>
</g>
<defs>
<filter id="filter0_d_156_14" x="163.654" y="138.894" width="721.737" height="808.841" filterUnits="userSpaceOnUse" color-interpolation-filters="sRGB">
<feFlood flood-opacity="0" result="BackgroundImageFix"/>
<feColorMatrix in="SourceAlpha" type="matrix" values="0 0 0 0 0 0 0 0 0 0 0 0 0 0 0 0 0 0 127 0" result="hardAlpha"/>
<feOffset dy="4.95192"/>
<feComposite in2="hardAlpha" operator="out"/>
<feColorMatrix type="matrix" values="0 0 0 0 1 0 0 0 0 1 0 0 0 0 1 0 0 0 1 0"/>
<feBlend mode="normal" in2="BackgroundImageFix" result="effect1_dropShadow_156_14"/>
<feBlend mode="normal" in="SourceGraphic" in2="effect1_dropShadow_156_14" result="shape"/>
</filter>
<linearGradient id="paint0_linear_156_14" x1="524.524" y1="821.844" x2="524.524" y2="87.2564" gradientUnits="userSpaceOnUse">
<stop stop-color="#8741F3"/>
<stop offset="1" stop-color="#D0A0FF"/>
</linearGradient>
</defs>
</svg>
